<?xml version="1.0" standalone="no"?>
<!DOCTYPE svg PUBLIC "-//W3C//DTD SVG 20010904//EN"
 "http://www.w3.org/TR/2001/REC-SVG-20010904/DTD/svg10.dtd">
<svg version="1.0" xmlns="http://www.w3.org/2000/svg"
 width="512.000000pt" height="512.000000pt" viewBox="0 0 512.000000 512.000000"
 preserveAspectRatio="xMidYMid meet">
<metadata>
Created by potrace 1.14, written by Peter Selinger 2001-2017
</metadata>
<g transform="translate(0.000000,512.000000) scale(0.100000,-0.100000)"
fill="#000000" stroke="none">
<path d="M2407 4874 c-1 -1 -40 -4 -87 -7 -47 -4 -98 -9 -115 -12 -16 -2 -43
-7 -60 -9 -72 -12 -105 -19 -180 -38 -44 -11 -87 -21 -95 -23 -113 -24 -449
-177 -578 -263 -35 -23 -67 -42 -72 -42 -5 0 -10 -3 -12 -8 -1 -4 -28 -25 -58
-47 -30 -22 -57 -42 -60 -45 -3 -3 -32 -27 -65 -55 -66 -54 -213 -201 -260
-259 -16 -21 -40 -49 -53 -64 -12 -15 -35 -45 -50 -67 -15 -22 -29 -42 -32
-45 -41 -37 -238 -406 -252 -470 -2 -8 -5 -17 -8 -20 -7 -7 -65 -189 -86 -270
-18 -73 -21 -89 -29 -140 -3 -20 -7 -46 -10 -59 -2 -13 -7 -49 -10 -80 -3 -31
-8 -72 -11 -91 -6 -43 -6 -296 0 -365 31 -347 125 -653 294 -955 48 -86 174
-273 212 -313 8 -8 33 -37 55 -63 70 -83 199 -207 290 -279 28 -22 52 -42 55
-45 15 -16 169 -116 241 -158 155 -89 339 -169 478 -208 112 -31 126 -35 151
-40 14 -2 39 -8 55 -11 17 -4 35 -8 40 -8 9 -1 71 -12 120 -21 85 -16 354 -21
491 -10 91 8 226 26 235 32 4 2 26 6 49 9 24 3 46 8 50 10 4 2 21 7 39 10 74
13 306 97 417 151 66 31 121 58 124 58 3 1 25 14 50 30 25 16 68 42 95 59 173
107 406 318 556 504 122 151 262 394 336 583 44 112 108 329 118 400 2 19 9
60 15 90 30 157 33 527 5 685 -3 17 -8 46 -11 65 -13 73 -16 87 -39 180 -44
171 -106 333 -193 500 -43 81 -115 202 -137 227 -20 24 -30 38 -49 68 -53 82
-257 299 -372 395 -108 90 -280 210 -301 210 -7 0 -13 3 -13 8 0 4 -10 12 -23
18 -12 6 -57 29 -100 52 -205 107 -496 199 -722 226 -22 3 -65 8 -95 12 -51 6
-327 13 -333 8z"/>
</g>
</svg>
